<?xml version="1.0" standalone="no"?>
<!DOCTYPE svg PUBLIC "-//W3C//DTD SVG 20010904//EN"
 "http://www.w3.org/TR/2001/REC-SVG-20010904/DTD/svg10.dtd">
<svg version="1.0" xmlns="http://www.w3.org/2000/svg"
 width="326.000000pt" height="320.000000pt" viewBox="0 0 326.000000 320.000000"
 preserveAspectRatio="xMidYMid meet">

<g transform="translate(0.000000,320.000000) scale(0.100000,-0.100000)"
fill="#0077ff" stroke="none">
<path d="M1455 3071 c-158 -33 -213 -51 -332 -107 -51 -24 -95 -44 -99 -44
-20 0 -156 -103 -214 -161 -223 -227 -345 -471 -394 -794 -26 -170 -116 -411
-297 -800 -51 -112 -60 -155 -39 -202 21 -47 54 -63 123 -61 l52 1 -45 7 c-25
4 -43 8 -40 9 18 8 190 10 190 2 0 -5 -17 -12 -37 -14 -36 -3 -36 -4 7 -5 26
-1 51 -7 58 -14 7 -7 12 -39 12 -75 0 -34 5 -85 11 -112 13 -60 63 -135 85
-127 8 3 12 2 9 -4 -9 -15 50 -40 92 -39 32 1 34 2 13 8 -23 6 -23 8 -7 17 16
9 13 12 -22 22 -47 15 -98 62 -119 112 -8 19 -17 77 -20 128 -6 121 -7 122
-167 122 -137 0 -165 10 -165 61 0 16 4 37 9 47 29 54 185 412 250 575 35 89
73 235 91 347 12 77 48 213 76 285 51 130 158 309 221 367 72 68 178 157 233
196 36 26 70 52 75 59 31 37 237 118 383 149 94 20 356 23 452 5 354 -67 653
-273 843 -583 151 -245 217 -549 177 -808 -33 -209 -104 -363 -305 -665 -81
-121 -171 -269 -200 -330 -76 -156 -117 -324 -127 -520 -3 -54 -1 -60 18 -63
18 -3 21 3 23 50 7 168 41 321 103 468 53 124 91 186 271 447 31 45 57 84 57
87 0 2 18 34 40 70 22 36 40 72 40 80 0 8 4 17 9 21 14 8 50 107 78 215 37
141 44 393 14 548 -37 192 -104 359 -204 505 -179 263 -508 467 -842 522 -170
28 -291 27 -440 -4z m-880 -2519 c-3 -3 -11 0 -18 7 -9 10 -8 11 6 5 10 -3 15
-9 12 -12z"/>
<path d="M1621 2869 c-45 -18 -98 -82 -106 -127 -4 -23 -7 -42 -8 -43 -1 0
-22 -2 -47 -5 -49 -6 -56 -9 -179 -78 -100 -57 -184 -117 -229 -165 -32 -35
-34 -35 -103 -32 -61 2 -76 -1 -115 -24 -46 -27 -84 -76 -84 -107 0 -11 5 -15
14 -12 9 4 16 -3 19 -18 4 -20 4 -19 6 5 2 52 81 127 134 127 38 0 59 -12 91
-54 24 -32 26 -41 20 -87 -9 -70 -57 -124 -104 -117 -32 5 -32 4 -11 -11 l21
-16 -20 -13 c-12 -7 -26 -10 -32 -6 -6 4 -9 3 -5 -2 3 -5 -1 -18 -9 -29 -12
-16 -14 -16 -14 -2 0 10 -5 14 -14 11 -10 -4 -16 2 -18 18 -7 45 -41 -179 -42
-272 0 -109 29 -257 51 -257 7 0 13 7 13 14 0 8 5 11 13 7 10 -6 10 -4 0 7 -7
7 -13 25 -13 39 0 15 -3 30 -7 34 -11 10 -13 33 -14 146 -1 156 7 195 51 241
36 39 81 52 95 29 4 -6 10 -8 15 -5 11 7 41 -35 34 -47 -5 -7 48 -101 66 -118
14 -13 40 -70 40 -88 0 -19 -28 -81 -41 -92 -3 -3 -9 -16 -12 -30 -4 -14 -22
-43 -42 -65 -19 -22 -37 -47 -40 -55 -3 -8 -19 -25 -35 -38 -23 -18 -33 -20
-54 -12 -25 9 -32 4 -27 -23 1 -4 -7 -3 -18 2 -10 6 -21 7 -25 4 -3 -3 -6 -1
-6 6 0 13 -51 -43 -69 -76 -28 -54 -9 -136 45 -189 49 -50 95 -63 156 -44 l41
12 56 -55 c77 -75 193 -147 298 -186 134 -49 156 -63 171 -107 17 -51 34 -68
90 -92 80 -34 174 -7 210 60 36 65 73 108 92 108 73 0 295 123 408 225 53 48
54 48 89 36 52 -19 97 -6 147 42 55 52 72 105 55 171 -12 48 -59 105 -59 72 0
-12 -5 -16 -15 -12 -21 8 -19 4 15 -39 48 -60 36 -118 -36 -179 -39 -32 -64
-33 -122 -5 -34 17 -49 32 -63 64 -26 60 -17 96 37 144 50 44 56 56 18 36 -16
-8 -41 -11 -63 -8 -37 6 -175 73 -200 97 -18 18 -5 73 20 86 10 6 19 17 19 25
0 21 34 37 48 23 7 -7 12 -15 12 -19 0 -5 14 -30 31 -56 18 -26 41 -62 53 -80
17 -26 25 -31 45 -26 20 5 23 3 18 -10 -10 -26 9 -29 29 -4 10 12 15 19 10 15
-9 -7 -66 40 -66 54 0 5 -11 26 -25 46 -14 20 -25 45 -25 55 0 11 -9 32 -20
47 -37 52 -36 82 4 150 20 33 36 63 36 66 0 3 18 30 41 60 28 38 49 56 70 61
16 3 29 11 29 19 0 14 38 30 47 20 4 -3 13 3 21 15 19 27 9 34 -20 15 -15 -10
-42 -15 -71 -14 -25 1 -42 5 -37 8 5 3 0 11 -11 19 -12 7 -18 8 -15 2 8 -12
-13 -56 -21 -47 -8 8 -57 -60 -89 -125 -31 -63 -71 -119 -85 -119 -5 0 -8 3
-8 8 5 30 -4 55 -21 59 -11 3 -20 10 -20 15 0 5 4 6 10 3 7 -4 7 3 0 20 -19
51 -5 68 91 110 81 36 115 65 72 61 -11 0 -17 6 -17 17 2 20 -7 22 -25 5 -11
-11 -12 -10 -6 0 12 23 -54 -16 -68 -39 -6 -11 -29 -29 -50 -40 -49 -26 -69
-15 -107 60 -42 85 -34 90 135 85 106 -3 130 -6 130 -18 0 -20 9 -27 39 -30
25 -3 25 -3 11 32 -8 19 -15 40 -15 47 0 14 52 84 63 85 4 0 16 9 27 20 33 33
67 25 117 -24 44 -44 44 -46 37 -93 -4 -26 -13 -57 -20 -67 -10 -14 -11 -23
-2 -33 8 -10 7 -13 -3 -13 -12 0 -12 -2 0 -9 11 -7 10 -12 -6 -28 -16 -16 -17
-21 -6 -32 7 -7 10 -17 7 -23 -4 -7 -2 -8 4 -4 6 4 9 13 6 21 -3 7 13 37 36
67 42 52 42 54 37 117 -7 87 -43 139 -112 163 -41 13 -59 14 -98 5 l-47 -10
-58 56 c-31 31 -80 72 -107 89 -28 18 -61 42 -73 54 -25 23 -158 80 -216 92
-35 7 -41 12 -53 49 -35 103 -147 160 -242 122z m134 -77 c11 -10 25 -24 33
-32 13 -16 12 -81 -3 -114 -6 -14 -5 -17 3 -12 8 5 10 2 5 -9 -4 -12 -8 -13
-13 -4 -6 8 -11 5 -20 -11 -10 -19 -9 -24 8 -36 15 -10 19 -22 16 -44 -4 -21
1 -38 15 -56 12 -15 21 -32 21 -38 0 -6 -5 -4 -11 4 -13 18 -10 9 20 -55 45
-98 46 -92 -7 -100 -54 -7 -96 5 -111 33 -11 20 -6 95 10 155 5 20 7 43 3 49
-4 7 -3 8 4 4 19 -11 14 5 -5 20 -16 12 -16 15 -3 24 11 8 5 10 -25 8 -35 -3
-46 2 -82 36 -37 34 -43 45 -43 79 0 34 7 46 45 84 42 42 47 45 82 38 21 -4
47 -14 58 -23z m-238 -119 c-11 -10 13 -33 34 -33 18 0 79 -46 79 -60 0 -15
-30 -6 -31 9 -1 9 -5 5 -9 -9 -4 -14 -8 -19 -9 -12 -1 6 -8 12 -17 12 -8 0
-12 -5 -9 -11 11 -16 -94 -234 -131 -274 -21 -23 -26 -23 -165 -19 l-144 4
-27 30 c-54 59 -39 87 97 191 74 57 124 81 239 118 l69 22 27 -26 c20 -19 29
-23 33 -13 4 10 8 10 16 -2 8 -10 11 -11 11 -2 0 7 -12 18 -27 25 -41 18 -69
57 -41 57 6 0 8 -3 5 -7z m434 -58 c39 -14 90 -36 184 -81 91 -44 183 -143
170 -183 -3 -10 -17 -29 -31 -42 -24 -22 -34 -24 -155 -27 -89 -3 -134 0 -144
8 -8 6 -19 9 -25 5 -5 -3 -10 1 -10 9 0 18 -55 130 -73 148 -7 7 -21 32 -31
54 l-18 42 27 41 c30 45 42 48 106 26z m-131 -9 c0 -3 -4 -8 -10 -11 -5 -3
-10 -1 -10 4 0 6 5 11 10 11 6 0 10 -2 10 -4z m-130 -48 c0 -6 -3 -8 -7 -5 -9
9 -33 -41 -33 -69 0 -12 5 -26 10 -29 14 -9 12 -115 -3 -145 -10 -21 -22 -26
-65 -30 -59 -6 -92 3 -92 25 0 22 56 117 85 145 14 13 25 30 25 37 0 8 7 16
16 20 8 3 14 15 13 27 -2 31 -1 31 26 34 14 1 25 -3 25 -10z m140 -78 c0 -5
-2 -10 -4 -10 -3 0 -8 5 -11 10 -3 6 -1 10 4 10 6 0 11 -4 11 -10z m-777 -88
c-3 -9 -10 -22 -14 -28 -5 -6 -6 -14 -2 -17 3 -4 2 -7 -3 -7 -25 0 -33 23 -17
51 17 29 46 29 36 1z m1309 -4 c-9 -9 -15 -9 -24 0 -9 9 -7 12 12 12 19 0 21
-3 12 -12z m-991 -164 c11 -14 10 -19 -9 -34 -12 -10 -23 -31 -24 -48 -1 -17
-4 -29 -7 -27 -2 3 -13 -3 -23 -12 -16 -14 -24 -15 -48 -6 -21 8 -30 8 -34 -1
-3 -8 -7 -7 -14 3 -7 9 -12 10 -16 2 -11 -18 -26 -13 -19 7 5 15 4 14 -9 -2
-9 -12 -20 -16 -29 -12 -8 4 -5 0 5 -8 11 -9 24 -16 28 -16 5 0 14 -5 21 -10
7 -6 23 -18 37 -29 l24 -19 -19 -38 c-11 -21 -26 -45 -33 -52 -6 -8 -17 -22
-23 -33 -12 -24 -32 -15 -24 11 3 10 1 21 -5 25 -6 3 -17 21 -25 38 -14 32
-24 48 -55 97 -35 54 -34 62 7 59 56 -3 63 -1 57 19 -5 14 -3 14 10 -2 9 -11
16 -15 16 -9 0 7 -5 15 -10 18 -6 4 -7 12 -4 18 4 7 4 9 -1 5 -4 -4 -14 0 -21
10 -11 14 -12 12 -9 -21 3 -22 0 -35 -5 -32 -6 4 -10 12 -10 20 0 19 -37 7
-58 -20 l-18 -22 -10 22 c-14 29 0 55 28 55 13 0 18 5 15 13 -9 25 29 35 127
35 54 0 100 3 104 6 12 12 70 5 83 -10z m273 -4 c18 -19 33 -324 17 -335 -13
-8 -90 26 -133 58 -18 14 -58 37 -88 52 -80 40 -80 40 -66 83 15 48 49 112 75
138 17 19 30 22 100 20 56 -1 85 -6 95 -16z m121 10 c3 -5 38 -10 76 -10 65 0
72 -2 97 -30 46 -50 89 -137 77 -156 -9 -14 -85 -62 -145 -90 -8 -5 -37 -22
-65 -39 -74 -47 -83 -48 -89 -17 -7 37 -8 69 -7 204 1 92 4 120 17 132 18 18
30 20 39 6z m806 -63 c-10 -9 -11 -8 -5 6 3 10 9 15 12 12 3 -3 0 -11 -7 -18z
m-557 -13 c3 -8 2 -12 -4 -9 -6 3 -10 10 -10 16 0 14 7 11 14 -7z m-629 -174
c-8 -13 15 -13 35 0 16 10 40 -5 40 -24 0 -6 -5 -3 -11 6 -5 9 -16 15 -24 12
-8 -4 -12 -10 -9 -15 3 -5 -5 -5 -17 0 -25 9 -38 31 -19 31 6 0 8 -4 5 -10z
m679 -15 c10 -8 22 -12 27 -10 4 3 5 -4 2 -14 -3 -11 3 -33 14 -48 44 -65 46
-80 16 -142 -15 -31 -28 -61 -28 -67 0 -18 -26 -44 -44 -44 -9 0 -26 6 -38 13
-12 6 -57 32 -100 56 -110 62 -133 80 -133 101 0 10 -5 21 -10 23 -6 3 -5 4 2
3 7 -2 31 9 53 24 22 15 72 44 110 65 39 22 72 43 73 47 6 13 35 9 56 -7z
m-634 -45 c47 -28 102 -58 123 -67 29 -13 37 -22 37 -44 0 -23 -11 -34 -72
-71 -175 -107 -205 -118 -243 -90 -19 14 -19 14 3 9 22 -5 23 -4 8 12 -9 10
-16 25 -16 34 0 10 -11 35 -25 57 -26 41 -31 65 -16 74 5 3 24 32 41 64 32 57
46 72 65 72 6 0 48 -23 95 -50z m321 -123 c-10 -9 -11 -8 -5 6 3 10 9 15 12
12 3 -3 0 -11 -7 -18z m34 -18 c11 -17 -1 -21 -15 -4 -8 9 -8 15 -2 15 6 0 14
-5 17 -11z m-14 -29 c-9 -5 -8 -9 4 -13 9 -4 13 -3 10 2 -9 16 13 23 35 11 11
-6 20 -18 20 -28 0 -13 -2 -14 -9 -3 -5 7 -15 11 -22 9 -14 -5 49 -48 150
-103 39 -21 57 -37 59 -53 4 -23 -56 -139 -83 -162 -8 -7 -13 -15 -10 -19 2
-4 -10 -5 -27 -3 -21 3 -29 1 -24 -6 4 -6 13 -9 21 -5 11 4 13 1 9 -12 -5 -13
-14 -15 -38 -11 -31 6 -31 6 -8 -9 12 -9 22 -22 22 -30 0 -7 -18 -43 -41 -80
-22 -37 -43 -74 -46 -83 -3 -10 -15 -28 -27 -41 l-21 -24 22 5 c16 4 20 2 16
-9 -3 -7 -8 -11 -11 -9 -3 3 -11 -2 -18 -12 -22 -30 -32 -2 -44 116 -9 88 -9
121 0 143 7 17 17 26 24 22 6 -4 5 1 -3 11 -13 15 -13 19 0 26 12 8 11 11 -3
22 -19 15 -22 46 -20 206 2 93 5 115 20 130 10 10 16 24 14 31 -3 10 0 11 18
1 16 -9 19 -14 11 -20z m-117 -18 c14 -16 16 -41 15 -158 -1 -76 -6 -147 -11
-156 -5 -10 -19 -18 -31 -18 -12 0 -29 -4 -37 -10 -10 -6 -4 -8 20 -7 23 1 34
-2 33 -11 -4 -16 14 -16 20 1 3 7 6 4 6 -7 1 -14 -4 -17 -24 -14 -30 6 -31 1
-5 -20 17 -14 22 -33 27 -108 4 -57 2 -98 -5 -111 -8 -14 -8 -23 0 -31 7 -7 9
-14 6 -17 -3 -3 -24 22 -48 54 -24 33 -47 58 -50 56 -4 -2 -7 1 -7 8 0 7 -14
36 -32 65 -17 29 -31 59 -31 66 0 8 -7 16 -14 19 -10 4 -13 1 -9 -9 8 -22 -24
-17 -41 7 -17 24 -99 39 -110 20 -5 -7 3 -9 23 -5 45 9 72 -13 128 -108 98
-163 101 -178 49 -235 l-33 -37 -64 23 c-145 53 -307 158 -350 228 -21 33 -21
37 -7 62 9 14 31 34 49 44 l34 18 -33 -6 c-19 -4 -38 -2 -46 4 -19 16 -43 4
-51 -26 -11 -45 -49 -73 -100 -73 -37 0 -51 6 -84 35 -61 55 -62 136 -4 188
19 17 44 18 160 5 6 -1 9 -7 7 -13 -3 -7 2 -18 11 -25 8 -7 15 -21 15 -31 0
-16 3 -15 25 6 13 14 31 25 39 25 25 0 55 31 48 49 -5 14 -4 14 13 1 10 -8 16
-10 12 -4 -4 7 2 12 18 12 13 0 38 11 55 26 43 35 48 34 88 -18 12 -16 22 -24
22 -19 0 5 -5 14 -12 21 -6 6 -13 19 -14 27 -1 9 12 2 32 -17 36 -34 42 -52
22 -64 -8 -5 -9 -2 -5 10 4 10 3 15 -4 11 -5 -4 -7 -15 -4 -25 6 -19 -17 -50
-38 -51 -7 0 -1 -5 12 -10 13 -5 26 -7 29 -4 3 3 0 5 -7 5 -7 0 -9 5 -6 10 9
15 25 12 25 -5 0 -18 17 -20 23 -2 2 6 3 4 1 -6 -2 -12 2 -17 11 -13 8 3 15 0
17 -6 2 -6 10 -4 20 6 9 9 25 16 35 17 14 0 12 3 -8 12 -14 7 -34 18 -43 26
-20 17 -76 123 -76 145 0 13 70 76 85 76 4 0 30 15 58 33 80 52 121 77 128 77
3 0 13 -8 23 -18z m-459 -22 c4 -6 12 -7 18 -4 7 4 9 4 5 -1 -4 -4 4 -24 17
-44 42 -60 30 -83 -58 -115 -26 -10 -45 -22 -41 -27 3 -5 -4 -9 -16 -9 -12 0
-18 -4 -15 -10 4 -6 -6 -10 -23 -10 -20 0 -32 -7 -40 -22 -10 -20 -11 -19 -6
12 5 34 36 100 63 133 8 9 11 17 6 17 -4 0 0 12 10 26 37 57 66 77 80 54z
m958 -200 c25 -16 49 -30 53 -30 4 0 25 -12 47 -27 36 -25 38 -29 32 -64 -4
-22 -2 -40 4 -44 6 -3 11 -1 11 5 0 6 5 8 10 5 14 -9 12 -24 -2 -21 -7 2 -24
8 -38 13 -14 6 -29 8 -34 5 -5 -2 5 -10 20 -17 32 -13 54 -51 54 -92 0 -31
-74 -108 -153 -160 -64 -42 -185 -92 -241 -99 -41 -6 -48 -4 -75 24 -17 17
-31 39 -30 49 1 44 117 244 159 275 17 12 30 30 30 40 0 12 7 18 22 18 21 0
21 1 3 13 -12 10 -16 21 -12 38 8 31 64 99 82 99 8 0 34 -13 58 -30z m-943 16
c0 -2 -7 -7 -16 -10 -8 -3 -12 -2 -9 4 6 10 25 14 25 6z m194 -101 c3 -9 0
-15 -9 -15 -8 0 -15 7 -15 15 0 8 4 15 9 15 5 0 11 -7 15 -15z m31 -15 c3 -5
1 -10 -4 -10 -6 0 -11 5 -11 10 0 6 2 10 4 10 3 0 8 -4 11 -10z m-391 -149 c4
-5 0 -12 -6 -15 -10 -5 -10 -7 0 -12 6 -3 12 -13 12 -22 0 -12 -3 -13 -12 -4
-7 7 -23 12 -36 12 -14 0 -21 4 -17 11 4 6 13 8 20 5 9 -3 12 2 10 15 -4 19
19 27 29 10z m575 -165 c8 -9 8 -16 2 -20 -6 -4 -15 3 -21 14 -12 23 2 27 19
6z m-329 -67 c0 -4 -7 -6 -15 -3 -8 4 -15 10 -15 15 0 4 7 6 15 3 8 -4 15 -10
15 -15z m451 6 c60 -31 86 -113 55 -173 -32 -61 -83 -81 -146 -56 -113 45
-121 161 -16 225 38 23 67 24 107 4z m-416 -25 c3 -5 1 -10 -4 -10 -6 0 -11 5
-11 10 0 6 2 10 4 10 3 0 8 -4 11 -10z m576 -40 c11 0 17 -5 14 -10 -3 -6 -18
-7 -32 -4 -23 6 -25 5 -18 -17 l7 -24 -17 23 c-18 24 -11 47 12 38 8 -3 24 -6
34 -6z"/>
<path d="M1835 1390 c-3 -6 1 -7 9 -4 18 7 21 14 7 14 -6 0 -13 -4 -16 -10z"/>
<path d="M1208 1404 c-2 -2 -18 -4 -36 -6 -25 -2 -29 -5 -20 -16 7 -8 14 -9
17 -3 7 11 29 10 50 -3 10 -6 12 -5 7 2 -5 8 3 10 26 7 32 -5 32 -5 8 6 -29
14 -47 18 -52 13z"/>
<path d="M1591 1354 c0 -11 3 -14 6 -6 3 7 2 16 -1 19 -3 4 -6 -2 -5 -13z"/>
<path d="M1230 1350 l-35 -7 38 -2 c20 0 37 4 37 9 0 6 -1 9 -2 9 -2 -1 -19
-5 -38 -9z"/>
<path d="M1165 1340 c-3 -5 1 -10 10 -10 9 0 13 5 10 10 -3 6 -8 10 -10 10 -2
0 -7 -4 -10 -10z"/>
<path d="M1538 1343 c6 -2 18 -2 25 0 6 3 1 5 -13 5 -14 0 -19 -2 -12 -5z"/>
<path d="M2128 1343 c6 -2 18 -2 25 0 6 3 1 5 -13 5 -14 0 -19 -2 -12 -5z"/>
<path d="M2198 1343 c7 -3 16 -2 19 1 4 3 -2 6 -13 5 -11 0 -14 -3 -6 -6z"/>
<path d="M770 2166 c0 -2 8 -10 18 -17 15 -13 16 -12 3 4 -13 16 -21 21 -21
13z"/>
<path d="M990 2053 c0 -6 8 -17 18 -24 16 -13 16 -13 2 6 -8 11 -16 22 -17 24
-2 2 -3 0 -3 -6z"/>
<path d="M2546 1979 c-16 -32 -17 -41 -6 -54 22 -26 8 -259 -19 -321 -11 -27
-15 -41 -7 -31 15 20 30 8 20 -16 -3 -8 -1 -17 4 -21 5 -3 18 41 30 97 22 107
28 320 9 344 -5 7 -6 17 -3 22 4 5 3 12 -1 14 -5 3 -17 -12 -27 -34z"/>
<path d="M890 1546 c0 -2 11 -6 25 -8 13 -3 22 -1 19 3 -5 9 -44 13 -44 5z"/>
<path d="M2438 1533 c7 -3 16 -2 19 1 4 3 -2 6 -13 5 -11 0 -14 -3 -6 -6z"/>
<path d="M2458 1493 c6 -2 18 -2 25 0 6 3 1 5 -13 5 -14 0 -19 -2 -12 -5z"/>
<path d="M637 563 c-3 -5 66 -7 154 -6 126 1 159 -2 159 -12 0 -8 -10 -16 -22
-18 -17 -3 -14 -5 9 -6 27 -1 31 2 27 17 -4 9 4 1 17 -18 22 -33 23 -46 27
-247 4 -202 5 -213 23 -213 19 0 20 9 19 218 -1 119 -4 229 -7 244 -4 21 -14
30 -42 38 -42 11 -357 14 -364 3z"/>
<path d="M658 523 c12 -2 30 -2 40 0 9 3 -1 5 -23 4 -22 0 -30 -2 -17 -4z"/>
<path d="M848 523 c6 -2 18 -2 25 0 6 3 1 5 -13 5 -14 0 -19 -2 -12 -5z"/>
</g>
</svg>
